<svg width="927" height="260" viewBox="0 0 927 260" fill="none" xmlns="http://www.w3.org/2000/svg">
<path d="M902.312 70.8468C882.71 70.8468 866.744 85.2247 859.486 110.044V70.8468H854.4L818.108 84.5089V89.5505C839.883 84.5089 846.417 87.3876 846.417 107.896V227.992C846.417 244.891 830.806 247.769 818.108 249.574V254.616H898.321V249.574C874.727 247.785 859.486 244.906 859.486 227.992V134.131C859.486 105.36 876.545 84.1511 894.699 84.1511C908.862 84.1511 907.043 95.6658 918.293 95.6658C923.733 95.6658 927 90.2663 927 85.9561C927 78.4092 919.372 70.8624 902.312 70.8624V70.8468ZM742.642 80.93C772.4 80.93 792.372 104.66 790.923 139.188H686.393C691.833 101.797 710.711 80.93 742.657 80.93H742.642ZM801.819 207.157C795.285 229.455 776.407 244.548 755.725 244.548C711.081 244.548 684.59 211.109 684.59 163.992C684.59 157.877 684.944 151.761 685.314 146.377H805.456C810.171 108.254 788.396 70.8624 748.467 70.8624C701.649 70.8624 669.333 111.849 669.333 169.391C669.333 221.892 699.815 259.658 748.467 259.658C777.871 259.658 801.094 239.165 806.534 208.23L801.819 207.157ZM661.859 237.002C657.867 241.67 652.782 249.59 640.808 249.59C620.851 249.59 609.601 235.57 609.601 211.84V86.2984H663.323V76.2308H609.601V33.0816H604.516C601.249 64.3737 590.369 78.0358 566.05 81.2724V86.314H596.533V211.809C596.533 243.459 610.325 260 634.644 260C652.427 260 663.677 244.175 664.402 238.06L661.859 236.986V237.002ZM551.857 237.002C547.866 241.67 542.78 249.59 530.806 249.59C510.834 249.59 499.584 235.57 499.584 211.84V86.2984H553.306V76.2308H499.584V33.0816H494.499C491.232 64.3737 480.336 78.0358 456.018 81.2724V86.314H486.5V211.809C486.5 243.459 500.293 260 524.611 260C542.395 260 553.645 244.175 554.369 238.06L551.826 236.986L551.857 237.002ZM369.148 246.353C348.467 246.353 330.313 230.528 330.313 208.962C330.313 182.353 347.373 167.617 385.113 162.934L420.681 158.981V202.488C408.337 229.455 390.553 246.353 369.133 246.353H369.148ZM458.422 237.717C454.061 245.264 449.345 248.501 444.63 248.501C438.465 248.501 433.734 243.833 433.734 235.555V134.847C433.734 95.2924 411.959 70.8468 379.288 70.8468C332.101 70.8468 315.041 103.213 315.041 122.274C315.041 134.863 323.394 136.652 328.109 134.863C332.825 133.073 334.643 127.674 332.47 117.606C328.849 101.423 339.374 80.93 372.03 80.93C401.433 80.93 420.666 101.797 420.666 135.594V149.256L384.004 152.851C336.816 157.519 315.041 177.296 315.041 213.256C315.041 240.954 337.186 260 363.677 260C390.168 260 409.046 242.012 420.666 211.451V236.628C420.666 251.364 428.294 260 440.268 260C446.078 260 455.155 255.332 462.768 239.507L458.407 237.717H458.422ZM296.178 0H250.085L145.554 228.35L46.4633 0H0.724303V5.39949C25.0424 5.75738 33.395 12.5884 33.395 31.2921V222.966C33.395 240.954 25.0424 247.785 0 249.574V254.616H76.2213V249.574C51.1789 247.785 43.5506 240.938 43.5506 222.966V33.0816L139.729 254.601H144.814L246.818 31.2921V222.966C246.818 240.954 238.465 247.785 213.423 249.574V254.616H296.178V249.574C271.136 247.785 262.783 240.938 262.783 222.966V31.65C262.783 13.6621 271.136 6.83105 296.178 5.04159V0Z" fill="#302F26"/>
</svg>
