<svg width="929" height="260" viewBox="0 0 929 260" fill="none" xmlns="http://www.w3.org/2000/svg">
<path d="M905.145 195.837C896.738 195.837 891.05 189.832 891.05 181.105V71.7009H926.576V55.5936H891.05V4.30049L873.147 14.3871V55.5936H846.029V71.7009H873.147V183.279C873.147 200.2 884.259 211.381 901.074 211.381H926.56L929 195.821H905.145V195.837ZM774.138 214.665C809.12 214.665 834.871 193.116 839.75 159.822L822.128 157.101C818.336 182.482 799.345 198.307 774.138 198.307C741.596 198.307 720.181 172.927 720.181 133.378C720.181 93.8289 741.596 68.7141 774.138 68.7141C797.729 68.7141 815.352 85.6345 818.879 108.826L836.503 106.371C832.167 75.2664 808.032 52.3565 774.138 52.3565C730.764 52.3565 702.294 84.0082 702.294 133.393C702.294 182.779 730.764 214.696 774.138 214.696V214.665ZM618.22 68.7297C643.706 68.7297 661.329 87.0107 662.961 113.47H566.982C572.95 85.3687 593.277 68.7297 618.235 68.7297H618.22ZM667.576 159.587C662.961 183.592 644.53 198.339 619.587 198.339C586.781 198.339 565.086 172.145 565.086 133.956V128.499H680.864C681.408 124.683 681.672 120.852 681.672 118.944C681.128 81.5686 656.729 52.3722 617.412 52.3722C578.094 52.3722 547.184 85.9317 547.184 133.409C547.184 180.887 576.462 214.712 619.572 214.712C652.922 214.712 679.216 195.07 684.64 162.871L667.561 159.587H667.576ZM491.579 260C508.394 260 519.786 250.179 519.786 234.088V55.5936H502.163V232.399C502.163 239.217 497.547 244.409 490.771 244.409H479.38L481.82 259.953H491.579V260ZM511.098 26.4598C518.962 26.4598 524.65 21.002 524.65 13.0891C524.65 5.17623 518.962 0 511.098 0C503.235 0 497.547 5.19187 497.547 13.0891C497.547 20.9864 503.235 26.4598 511.098 26.4598ZM406.168 198.339C377.698 198.339 357.356 172.958 357.356 133.675C357.356 94.3919 377.698 68.7453 406.168 68.7453C434.639 68.7453 456.598 94.1261 456.598 133.675C456.598 173.224 435.991 198.339 406.168 198.339ZM408.873 52.3722C385.546 52.3722 365.763 66.8375 357.356 90.5606V7.30302H339.733V211.397H354.651L357.091 175.648C365.219 199.934 385.562 214.665 408.873 214.665C447.102 214.665 474.485 183.013 474.485 133.628C474.485 84.2427 447.367 52.3253 408.873 52.3253V52.3722ZM284.641 55.5936V143.167C284.641 173.724 268.106 198.276 240.444 198.276C214.693 198.276 198.422 181.356 198.422 153.254V55.5936H180.519V156.554C180.519 192.568 202.214 214.665 236.108 214.665C259.434 214.665 277.322 201.294 285.185 177.008L287.889 211.381H302.264V55.5936H284.641V55.5936ZM81.0752 214.665C123.377 214.665 152.111 190.66 152.111 156.006C152.111 76.8772 25.2224 112.079 25.2224 55.5936C25.2224 34.0443 44.7413 20.6736 75.9312 20.6736C104.946 20.6736 126.625 37.86 133.416 64.6012L152.391 62.146C145.056 28.3207 115.777 4.03464 77.5475 4.03464C34.4379 4.03464 6.23177 24.7708 6.23177 56.4225C6.23177 132.002 133.121 95.987 133.121 157.367C133.121 180.824 111.97 197.479 82.1475 197.479C49.8852 197.479 24.9426 175.929 18.7109 143.183L0 146.185C7.05542 186.845 40.1258 214.665 81.0752 214.665" fill="#302F26"/>
</svg>
